<?xml version="1.0" encoding="UTF-8" standalone="no"?>
<!-- Created with Inkscape (http://www.inkscape.org/) -->

<svg
   width="1000"
   height="1000"
   viewBox="0 0 264.5833 264.58331"
   version="1.1"
   id="svg1"
   xml:space="preserve"
   inkscape:version="1.3.2 (091e20e, 2023-11-25, custom)"
   sodipodi:docname="Osu!lazer (June 2024).svg"
   xmlns:inkscape="http://www.inkscape.org/namespaces/inkscape"
   xmlns:sodipodi="http://sodipodi.sourceforge.net/DTD/sodipodi-0.dtd"
   xmlns:xlink="http://www.w3.org/1999/xlink"
   xmlns="http://www.w3.org/2000/svg"
   xmlns:svg="http://www.w3.org/2000/svg"><sodipodi:namedview
     id="namedview1"
     pagecolor="#ffffff"
     bordercolor="#000000"
     borderopacity="0.25"
     inkscape:showpageshadow="2"
     inkscape:pageopacity="0.0"
     inkscape:pagecheckerboard="0"
     inkscape:deskcolor="#d1d1d1"
     inkscape:document-units="px"
     inkscape:zoom="0.54243936"
     inkscape:cx="484.84683"
     inkscape:cy="485.76859"
     inkscape:window-width="1366"
     inkscape:window-height="705"
     inkscape:window-x="-8"
     inkscape:window-y="-8"
     inkscape:window-maximized="1"
     inkscape:current-layer="svg1" /><defs
     id="defs1"><linearGradient
       id="linearGradient11"
       inkscape:collect="always"><stop
         style="stop-color:#cf548b;stop-opacity:1"
         offset="0"
         id="stop11" /><stop
         style="stop-color:#fb65a8;stop-opacity:1"
         offset="1"
         id="stop12" /></linearGradient><linearGradient
       id="linearGradient3"
       inkscape:collect="always"><stop
         style="stop-color:#b5356e;stop-opacity:1;"
         offset="0"
         id="stop3" /><stop
         style="stop-color:#b5356e;stop-opacity:0;"
         offset="1"
         id="stop4" /></linearGradient><linearGradient
       inkscape:collect="always"
       xlink:href="#linearGradient3"
       id="linearGradient4"
       x1="409.26505"
       y1="788.03479"
       x2="409.26505"
       y2="-42.021477"
       gradientUnits="userSpaceOnUse"
       gradientTransform="matrix(0.22041808,0,0,0.22023061,60.935973,-269.04568)" /><linearGradient
       inkscape:collect="always"
       xlink:href="#linearGradient11"
       id="linearGradient12"
       x1="155.77414"
       y1="220.93983"
       x2="155.77414"
       y2="1.9057312"
       gradientUnits="userSpaceOnUse" /><filter
       inkscape:collect="always"
       style="color-interpolation-filters:sRGB"
       id="filter14"
       x="-0.038332056"
       y="-0.10032404"
       width="1.0766641"
       height="1.2006481"><feGaussianBlur
         inkscape:collect="always"
         stdDeviation="2.7439671"
         id="feGaussianBlur14" /></filter><filter
       inkscape:collect="always"
       style="color-interpolation-filters:sRGB"
       id="filter1"
       x="-0.012"
       y="-0.012"
       width="1.024"
       height="1.024"><feGaussianBlur
         inkscape:collect="always"
         stdDeviation="1.2201658"
         id="feGaussianBlur1" /></filter></defs><g
     inkscape:label="Katman 1"
     id="layer1"
     transform="matrix(1.0587992,0,0,1.0587992,-32.642016,335.97939)"><g
       id="path7"
       transform="translate(0,-303.79928)"
       style="display:inline"><path
         style="color:#000000;display:inline;fill:url(#linearGradient12);stroke-miterlimit:5;-inkscape-stroke:none;paint-order:markers stroke fill"
         d="M 265.29119,111.42278 A 109.51705,109.51705 0 0 1 155.77414,220.93983 109.51705,109.51705 0 0 1 46.257088,111.42278 109.51705,109.51705 0 0 1 155.77414,1.9057312 109.51705,109.51705 0 0 1 265.29119,111.42278 Z"
         id="path10" /><path
         id="path11"
         style="color:#000000;display:inline;opacity:0.25;mix-blend-mode:normal;fill:#000000;fill-opacity:1;stroke-miterlimit:5;-inkscape-stroke:none;paint-order:markers stroke fill;filter:url(#filter1)"
         d="m 155.77349,-10.593481 c -67.239971,0 -122.015812,54.775322 -122.015813,122.015291 10e-7,67.23996 54.775842,122.01787 122.015813,122.01787 67.23996,0 122.01735,-54.77791 122.01735,-122.01787 0,-67.239969 -54.77739,-122.015291 -122.01735,-122.015291 z M 155.774,1.9060143 A 109.51705,109.51705 0 0 1 265.29135,111.42284 109.51705,109.51705 0 0 1 155.774,220.94019 109.51705,109.51705 0 0 1 46.257173,111.42284 109.51705,109.51705 0 0 1 155.774,1.9060143 Z" /><path
         id="path9"
         style="color:#000000;display:inline;fill:#ffffff;stroke-miterlimit:5;-inkscape-stroke:none;paint-order:markers stroke fill"
         d="m 155.77349,-10.593595 c -67.239971,0 -122.015812,54.775322 -122.015813,122.015295 10e-7,67.23996 54.775842,122.01787 122.015813,122.01787 67.23996,0 122.01735,-54.77791 122.01735,-122.01787 0,-67.239973 -54.77739,-122.015295 -122.01735,-122.015295 z M 155.774,1.9059007 A 109.51705,109.51705 0 0 1 265.29135,111.42273 109.51705,109.51705 0 0 1 155.774,220.94008 109.51705,109.51705 0 0 1 46.257173,111.42273 109.51705,109.51705 0 0 1 155.774,1.9059007 Z" /></g><path
       id="path1"
       style="color:#000000;display:inline;fill:url(#linearGradient4);stroke-width:0.220325;stroke-miterlimit:5;-inkscape-stroke:none;paint-order:markers stroke fill"
       d="m 126.60932,-289.53431 -0.44314,0.76711 -32.20738,55.73784 -13.957009,-24.15404 -0.44366,0.76712 -32.889614,56.91837 a 109.40485,109.54742 0 0 0 -0.166437,2.33379 l 33.499711,-57.9738 13.365978,23.13104 -16.106264,27.87328 h 32.212515 l 7.53554,13.04107 -10.56695,18.28685 H 86.07288 l -16.109356,-27.87844 -0.443661,0.76712 -15.665695,27.11132 h -5.760887 a 109.40485,109.54742 0 0 0 0.222087,1.023 h 4.947767 l -3.595658,6.22295 a 109.40485,109.54742 0 0 0 0.323083,1.48637 l 4.45464,-7.70932 h 31.036646 l 28.718904,49.70125 -3.337,5.77503 H 77.040448 a 109.40485,109.54742 0 0 0 1.02181,1.023 h 32.210462 l -10.01302,17.328715 a 109.40485,109.54742 0 0 0 0.89814,0.491163 l 10.29694,-17.819878 h 7.85657 l -3.92853,-6.79803 18.96711,-32.82406 h 27.6739 l 0.34833,0.60237 -9.03707,15.63899 h 18.07362 l 24.3529,42.144838 h -92.87653 a 109.40485,109.54742 0 0 0 1.87101,1.023 h 92.7786 l -24.94443,-43.167838 h 49.22159 l -5.46873,9.46443 h 28.41127 a 109.40485,109.54742 0 0 0 0.7652,-1.02301 H 218.1157 l 4.87769,-8.44142 h 27.68986 a 109.40485,109.54742 0 0 0 0.65441,-1.1996 l -13.82561,-23.92596 10.95187,-18.95254 h 15.8177 a 109.40485,109.54742 0 0 0 0.11182,-1.56564 l -7.51234,-13.00092 6.76725,-11.71173 a 109.40485,109.54742 0 0 0 -0.2726,-1.57388 l -7.08567,12.26261 -40.33961,-69.81064 -0.44314,0.76712 -42.85111,74.1575 -6.30761,-10.91579 h 9.60853 z m 0,2.04548 47.57472,82.33223 h -8.42646 l -20.31047,-35.14909 -0.44365,0.7666 -19.86734,34.38249 h -15.07105 l -15.515237,-26.85028 z m 89.34115,21.39189 39.74857,68.78815 -7.82667,13.54408 h -21.9027 l -23.28675,-40.30014 -0.44316,0.76712 -22.84361,39.53302 h -1.27791 l -4.87098,-8.4301 z m -70.50336,27.83622 19.12893,33.10412 h -38.25786 z m -51.48831,7.27633 14.92419,25.82779 H 79.0346 Z m 108.72412,8.96502 22.1052,38.25466 h -44.21043 z m -92.02682,17.88577 h 13.88898 l -6.9445,12.01807 z m 15.07105,0 h 39.43992 l 6.89812,11.93776 -5.46253,9.45361 h 10.92507 l 0.63894,1.10538 -14.85565,25.70836 h -0.69668 l -14.42745,-24.968 -0.44316,0.7666 -13.98432,24.2014 H 97.871877 l 9.161253,-15.85419 h 22.31647 l -11.15798,-19.31036 z m -55.763626,5.49497 14.927292,25.83295 H 55.036231 Z m 186.326556,2.35284 7.23511,12.52108 h -14.47074 z m -83.63386,5.11295 4.28098,7.40813 h -8.56146 z m -55.05564,1.1028 9.97593,17.26436 h -19.95235 z m 61.10871,7.32781 h 0.0957 l -0.048,0.0829 z m 1.27789,0 h 45.39146 l 10.95187,18.95254 -13.92764,24.10255 h -50.40363 l -8.44553,-14.61546 0.34834,-0.60289 h 30.89289 l -15.44671,-26.73136 z m 46.57352,0 h 20.72116 l -10.36031,17.93006 z m -47.80349,2.12786 14.26462,24.68588 h -28.52875 z m -30.57032,1.76284 13.2459,22.92304 h -26.49182 z m -61.52298,7.06885 h 19.18768 l -9.593587,16.60277 z m 150.25711,9.01599 13.33662,23.07955 h -26.67322 z m -140.504825,7.8612 h 36.752195 l -18.3761,31.80106 z m 66.546475,1.62537 7.85501,13.59298 h -15.70949 z m -48.17089,32.22169 2.74595,4.75203 h -5.49191 z" /><g
       id="g6"
       style="display:inline"
       transform="translate(0,-303.79928)"><path
         id="path6"
         style="font-weight:600;font-size:98.1204px;line-height:0.9;font-family:Torus;-inkscape-font-specification:'Torus Semi-Bold';letter-spacing:-3.175px;word-spacing:0px;display:inline;opacity:0.25;mix-blend-mode:normal;fill:#000000;fill-opacity:1;stroke-width:6.66187;stroke-miterlimit:5;paint-order:markers stroke fill;filter:url(#filter14)"
         d="m 234.00525,78.175988 c -3.5323,0 -5.78879,2.551025 -5.78879,6.08335 v 32.673972 c 0,3.53232 2.25649,6.08387 5.78879,6.08387 3.43422,0 5.78931,-2.55155 5.78931,-6.08387 V 84.259338 c 0,-3.532325 -2.35509,-6.08335 -5.78931,-6.08335 z M 95.368754,93.188509 c -14.914256,0 -25.609806,10.694831 -25.609806,25.314731 0,14.52177 10.69555,25.31525 25.609806,25.31525 14.914256,0 25.609286,-10.79348 25.609286,-25.31525 0,-14.6199 -10.69503,-25.314731 -25.609286,-25.314731 z m 50.202106,0 c -9.81201,0 -18.64279,4.513403 -18.64279,15.404741 0,9.71389 7.26078,11.87261 15.40474,14.12937 8.24209,2.25675 11.38225,3.33625 11.38225,6.47609 0,3.13984 -2.9435,4.70979 -7.65328,4.70979 -6.27968,0 -9.51798,-2.55133 -12.16721,-5.00434 -1.66805,-1.4718 -4.21929,-2.64912 -7.16287,0.19637 -2.35489,2.25677 -2.64884,4.80786 -0.19586,7.75146 3.13985,3.72856 9.90998,6.9665 19.23139,6.9665 11.28381,0 19.13371,-4.80777 19.13371,-15.40474 0,-10.89133 -8.43842,-13.14845 -17.26923,-15.30708 -6.3778,-1.47181 -9.71413,-2.64902 -9.71413,-5.88698 0,-3.13984 3.04184,-4.21938 6.3779,-4.21938 4.90602,0 8.1439,2.3553 10.00818,3.72897 2.06053,1.56993 4.21926,2.4526 7.16287,-0.58911 2.94361,-3.23797 1.66805,-5.59249 0,-7.260536 -3.92481,-4.219164 -10.30284,-5.691125 -15.89567,-5.691125 z m 30.77486,0.784965 c -3.5323,0 -5.78931,2.55096 -5.78931,5.985164 v 20.391522 c 0,16.68041 11.16475,23.46833 21.36924,23.46833 h 3.16415 c 10.20449,0 21.36924,-6.78792 21.36924,-23.46833 V 99.958638 c 0,-3.434204 -2.25701,-5.985164 -5.78931,-5.985164 -3.53234,0 -5.78931,2.55096 -5.78931,5.985164 v 19.312002 c 0,9.93124 -5.11424,13.44307 -11.17658,13.46429 -6.2327,0.0723 -11.56881,-3.31929 -11.56881,-13.46429 V 99.958638 c 0,-3.434204 -2.25697,-5.985164 -5.78931,-5.985164 z m -80.976966,9.909986 c 8.634566,0 14.031186,6.37768 14.031186,14.61978 0,8.24208 -5.39662,14.52211 -14.031186,14.52211 -8.63457,0 -14.031185,-6.28003 -14.031185,-14.52211 0,-8.2421 5.396615,-14.61978 14.031185,-14.61978 z m 138.636496,24.92251 c -4.21914,0 -7.55509,3.33639 -7.55509,7.45743 0,4.21918 3.33595,7.55509 7.55509,7.55509 4.21918,0 7.55562,-3.33591 7.55562,-7.55509 0,-4.12104 -3.33644,-7.45743 -7.55562,-7.45743 z" /><path
         id="text4"
         style="font-weight:600;font-size:98.1204px;line-height:0.9;font-family:Torus;-inkscape-font-specification:'Torus Semi-Bold';letter-spacing:-3.175px;word-spacing:0px;display:inline;fill:#ffffff;fill-opacity:1;stroke-width:6.66187;stroke-miterlimit:5;paint-order:markers stroke fill"
         d="m 234.00525,74.932259 c -3.53229,0 -5.78879,2.551028 -5.78879,6.083349 v 32.673972 c 0,3.53232 2.2565,6.08387 5.78879,6.08387 3.43422,0 5.78931,-2.55155 5.78931,-6.08387 V 81.015608 c 0,-3.532321 -2.35509,-6.083349 -5.78931,-6.083349 z M 95.368754,89.944779 c -14.914241,0 -25.609806,10.694851 -25.609806,25.314731 0,14.52176 10.695565,25.31525 25.609806,25.31525 14.914246,0 25.609286,-10.79349 25.609286,-25.31525 0,-14.61988 -10.69504,-25.314731 -25.609286,-25.314731 z m 50.202106,0 c -9.812,0 -18.64279,4.51342 -18.64279,15.404741 0,9.71388 7.26079,11.87262 15.40474,14.12937 8.24208,2.25675 11.38225,3.33626 11.38225,6.47609 0,3.13984 -2.9435,4.70979 -7.65328,4.70979 -6.27967,0 -9.51798,-2.55133 -12.16721,-5.00434 -1.66805,-1.4718 -4.2193,-2.64912 -7.16287,0.19637 -2.35489,2.25677 -2.64883,4.80787 -0.19586,7.75146 3.13985,3.72856 9.90999,6.9665 19.23139,6.9665 11.2838,0 19.13371,-4.80778 19.13371,-15.40474 0,-10.89132 -8.43842,-13.14845 -17.26923,-15.30708 -6.37779,-1.47181 -9.71413,-2.64902 -9.71413,-5.88698 0,-3.13983 3.04185,-4.219377 6.3779,-4.219377 4.90602,0 8.1439,2.355307 10.00818,3.728967 2.06053,1.56993 4.21926,2.4526 7.16287,-0.58911 2.94361,-3.237962 1.66805,-5.592496 0,-7.260535 -3.92481,-4.219161 -10.30285,-5.691126 -15.89567,-5.691126 z m 30.77486,0.784965 c -3.53229,0 -5.78931,2.550963 -5.78931,5.985165 v 20.391521 c 0,16.68039 11.16476,23.46833 21.36924,23.46833 h 3.16415 c 10.20448,0 21.36924,-6.78794 21.36924,-23.46833 V 96.714909 c 0,-3.434202 -2.25702,-5.985165 -5.78931,-5.985165 -3.53234,0 -5.78931,2.550963 -5.78931,5.985165 v 19.312001 c 0,9.93123 -5.11425,13.44307 -11.17658,13.46429 -6.2327,0.0723 -11.56881,-3.3193 -11.56881,-13.46429 V 96.714909 c 0,-3.434202 -2.25697,-5.985165 -5.78931,-5.985165 z m -80.976966,9.909986 c 8.634556,0 14.031186,6.37769 14.031186,14.61978 0,8.24207 -5.39663,14.52211 -14.031186,14.52211 -8.634561,0 -14.031185,-6.28004 -14.031185,-14.52211 0,-8.24209 5.396624,-14.61978 14.031185,-14.61978 z m 138.636496,24.92251 c -4.21913,0 -7.55509,3.33639 -7.55509,7.45743 0,4.21918 3.33596,7.55509 7.55509,7.55509 4.21918,0 7.55562,-3.33591 7.55562,-7.55509 0,-4.12104 -3.33644,-7.45743 -7.55562,-7.45743 z" /></g></g></svg>
